<svg id="Layer_1" data-name="Layer 1" xmlns="http://www.w3.org/2000/svg" viewBox="0 0 200 200"><defs><style>.cls-1{fill:#fff;}</style></defs><title>Artboard 1</title><path class="cls-1" d="M181.42,70.36a87.07,87.07,0,0,1,0,59.28l11.63,4.24a99.43,99.43,0,0,0,0-67.76ZM10.26,141.86a99,99,0,0,0,179.48,0l-11.22-5.23a86.65,86.65,0,0,1-157,0Zm8.32-71.5L7,66.12a99.43,99.43,0,0,0,0,67.76l11.63-4.24a86.92,86.92,0,0,1,0-59.28M189.74,58.14a99,99,0,0,0-179.48,0l11.22,5.23a86.65,86.65,0,0,1,157,0Z"/><path class="cls-1" d="M81,111a23.71,23.71,0,0,1-5.78-.75V89.81A25,25,0,0,1,81,89.05c5.62,0,8.32,2.55,8.32,11s-2.7,11-8.32,11M82.68,80.2a36.93,36.93,0,0,0-7.43.93V60.4L64.9,61.52v55.66a52.5,52.5,0,0,0,15.3,2.63C92.65,119.81,100,115.6,100,100S92.65,80.2,82.68,80.2"/><path class="cls-1" d="M122.7,95.42c-4.43-.07-7.21-.15-7.21-2.55,0-3.15,1.88-3.82,7.58-3.82a55.92,55.92,0,0,1,11.41,1.42l-.83-8.55a42.53,42.53,0,0,0-11.33-1.73c-12.45,0-17.25,4.51-17.25,13,0,8.18,5,10.28,13.5,10.43,5.48.08,8.33-.07,8.33,3.53,0,3.15-2.48,3.82-7.8,3.82a42.9,42.9,0,0,1-13.21-1.87l.83,8.55a36.14,36.14,0,0,0,13.2,2.18c13.28,0,17.41-4.51,17.41-12.61,0-10.2-6.68-11.63-14.63-11.78"/><path class="cls-1" d="M47.58,110.65a29.88,29.88,0,0,1-5,.53c-4.5,0-6.37-1.43-6.37-4.5,0-3.23,1.8-3.75,5.55-4l5.85-.37ZM41.13,80.19a43,43,0,0,0-11.71,1.73l-.82,8.55A60,60,0,0,1,40,89.05c5.4,0,7.58.45,7.58,4.8v1.2l-7.2.37c-8,.45-14.63,1.8-14.63,11.78,0,8.1,4.12,12.61,16.58,12.61a52.89,52.89,0,0,0,15.6-2.63v-24c0-8.47-4.72-13-16.8-13"/><path class="cls-1" d="M163.9,110.65a29.88,29.88,0,0,1-5,.53c-4.5,0-6.38-1.43-6.38-4.5,0-3.23,1.81-3.75,5.56-4l5.85-.37Zm-6.45-30.46a43,43,0,0,0-11.71,1.73l-.82,8.55a59.94,59.94,0,0,1,11.4-1.42c5.4,0,7.58.45,7.58,4.8v1.2l-7.2.37c-8,.45-14.63,1.58-14.63,11.78,0,8.1,4.12,12.61,16.58,12.61a52.89,52.89,0,0,0,15.6-2.63v-24c0-8.47-4.73-13-16.8-13"/></svg>